<svg width="31" height="31" viewBox="0 0 31 31" fill="none" xmlns="http://www.w3.org/2000/svg">
<g clip-path="url(#clip0_1_1566)">
<path d="M19.99 17.79C19.11 17.58 18.32 17.15 17.7 16.55C17.32 16.19 17.33 15.58 17.7 15.21C18.18 14.73 18.6 14.13 18.87 13.48C19.27 13.37 19.77 13 19.77 12.52C19.77 12.04 19.52 11.62 19.19 11.52C19.09 9.46999 18.27 7.73999 15.51 7.73999C12.75 7.73999 11.92 9.47999 11.83 11.52C11.5 11.62 11.25 12.03 11.25 12.52C11.25 13.01 11.75 13.38 12.15 13.48C12.42 14.13 12.84 14.72 13.32 15.21C13.69 15.58 13.7 16.19 13.32 16.55C12.69 17.15 11.9 17.58 11.03 17.79C9.87001 18.07 9.01001 19.11 9.01001 20.36V22.52C9.01001 22.94 9.35001 23.28 9.77001 23.28H21.27C21.69 23.28 22.03 22.94 22.03 22.52V20.36C22.03 19.11 21.17 18.07 20.01 17.79H19.99Z" fill="#FFA8FF"/>
<path d="M15.5 30.61C7.17001 30.61 0.390015 23.83 0.390015 15.5C0.390015 7.17001 7.17001 0.390015 15.5 0.390015C23.83 0.390015 30.61 7.17001 30.61 15.5C30.61 23.83 23.83 30.61 15.5 30.61ZM15.5 1.39001C7.72001 1.39001 1.39001 7.72001 1.39001 15.5C1.39001 23.28 7.72001 29.61 15.5 29.61C23.28 29.61 29.61 23.28 29.61 15.5C29.61 7.72001 23.28 1.39001 15.5 1.39001Z" fill="#FFA8FF"/>
</g>
<defs>
<clipPath id="clip0_1_1566">
<rect width="30.22" height="30.22" fill="white" transform="translate(0.390015 0.390015)"/>
</clipPath>
</defs>
</svg>
