<svg width="40" height="40" viewBox="0 0 40 40" fill="none" xmlns="http://www.w3.org/2000/svg">
<path fill-rule="evenodd" clip-rule="evenodd" d="M19.9608 4.89453C15.9727 4.89453 15.4735 4.91117 13.9072 4.98263C12.3439 5.05409 11.2759 5.30274 10.342 5.66592C9.36307 6.03399 8.47519 6.61155 7.741 7.35945C6.99431 8.09279 6.41639 8.98004 6.04748 9.95945C5.68626 10.8933 5.43663 11.9623 5.36517 13.5256C5.29469 15.0909 5.27707 15.5892 5.27707 19.5783C5.27707 23.5674 5.29371 24.0657 5.36517 25.6319C5.43663 27.1953 5.68528 28.2633 6.04846 29.1971C6.41653 30.1761 6.99409 31.0639 7.74198 31.7981C8.47534 32.5448 9.36259 33.1227 10.342 33.4916C11.2759 33.8538 12.3439 34.1025 13.9072 34.174C15.4735 34.2454 15.9727 34.2621 19.9608 34.2621C23.9489 34.2621 24.4482 34.2454 26.0145 34.174C27.5778 34.1025 28.6458 33.8538 29.5797 33.4907C30.5586 33.1226 31.4465 32.545 32.1807 31.7971C32.9274 31.0638 33.5053 30.1766 33.8742 29.1971C34.2364 28.2633 34.485 27.1953 34.5565 25.6319C34.628 24.0657 34.6446 23.5664 34.6446 19.5783C34.6446 15.5902 34.628 15.0909 34.5565 13.5247C34.485 11.9613 34.2364 10.8933 33.8732 9.95945C33.5046 8.97962 32.9266 8.09199 32.1797 7.35847C31.4463 6.61177 30.5591 6.03385 29.5797 5.66494C28.6458 5.30372 27.5768 5.05409 26.0135 4.98263C24.4482 4.91215 23.9499 4.89453 19.9608 4.89453ZM19.9608 7.54055C23.8814 7.54055 24.3464 7.55523 25.895 7.62571C27.3262 7.6913 28.1035 7.92918 28.6213 8.13181C29.3066 8.3971 29.796 8.71623 30.3099 9.22918C30.8239 9.74311 31.142 10.2326 31.4073 10.9178C31.609 11.4357 31.8478 12.2129 31.9134 13.6441C31.9839 15.1927 31.9986 15.6577 31.9986 19.5783C31.9986 23.4989 31.9839 23.9638 31.9134 25.5125C31.8478 26.9437 31.61 27.7209 31.4073 28.2388C31.1723 28.8766 30.7973 29.4536 30.3099 29.9274C29.8362 30.4149 29.2592 30.7899 28.6213 31.0248C28.1035 31.2264 27.3262 31.4653 25.895 31.5309C24.3464 31.6014 23.8824 31.616 19.9608 31.616C16.0393 31.616 15.5753 31.6014 14.0266 31.5309C12.5955 31.4653 11.8182 31.2274 11.3003 31.0248C10.6625 30.7898 10.0855 30.4148 9.61172 29.9274C9.12439 29.4536 8.74942 28.8766 8.51435 28.2388C8.31269 27.7209 8.07384 26.9437 8.00825 25.5125C7.93777 23.9638 7.92308 23.4989 7.92308 19.5783C7.92308 15.6577 7.93777 15.1927 8.00825 13.6441C8.07384 12.2129 8.31171 11.4357 8.51435 10.9178C8.77964 10.2326 9.09876 9.74311 9.61172 9.22918C10.0855 8.74172 10.6625 8.36673 11.3003 8.13181C11.8182 7.93015 12.5955 7.6913 14.0266 7.62571C15.5753 7.55523 16.0403 7.54055 19.9608 7.54055V7.54055Z" fill="white"/>
<path fill-rule="evenodd" clip-rule="evenodd" d="M19.9608 24.4778C19.3174 24.4778 18.6803 24.3511 18.0859 24.1049C17.4914 23.8586 16.9513 23.4977 16.4964 23.0428C16.0414 22.5878 15.6805 22.0477 15.4343 21.4533C15.1881 20.8588 15.0613 20.2217 15.0613 19.5783C15.0613 18.9349 15.1881 18.2978 15.4343 17.7034C15.6805 17.1089 16.0414 16.5688 16.4964 16.1139C16.9513 15.6589 17.4914 15.298 18.0859 15.0518C18.6803 14.8056 19.3174 14.6788 19.9608 14.6788C21.2602 14.6788 22.5064 15.195 23.4253 16.1139C24.3441 17.0327 24.8603 18.2789 24.8603 19.5783C24.8603 20.8777 24.3441 22.1239 23.4253 23.0428C22.5064 23.9616 21.2602 24.4778 19.9608 24.4778V24.4778ZM19.9608 12.0309C17.9591 12.0309 16.0394 12.826 14.624 14.2415C13.2085 15.6569 12.4134 17.5766 12.4134 19.5783C12.4134 21.58 13.2085 23.4998 14.624 24.9152C16.0394 26.3306 17.9591 27.1258 19.9608 27.1258C21.9625 27.1258 23.8822 26.3306 25.2977 24.9152C26.7131 23.4998 27.5083 21.58 27.5083 19.5783C27.5083 17.5766 26.7131 15.6569 25.2977 14.2415C23.8822 12.826 21.9625 12.0309 19.9608 12.0309V12.0309ZM29.704 11.8938C29.704 12.367 29.516 12.8208 29.1814 13.1554C28.8469 13.4899 28.3931 13.6779 27.9199 13.6779C27.4467 13.6779 26.9929 13.4899 26.6584 13.1554C26.3238 12.8208 26.1358 12.367 26.1358 11.8938C26.1358 11.4207 26.3238 10.9669 26.6584 10.6323C26.9929 10.2977 27.4467 10.1097 27.9199 10.1097C28.3931 10.1097 28.8469 10.2977 29.1814 10.6323C29.516 10.9669 29.704 11.4207 29.704 11.8938" fill="white"/>
</svg>
